<svg height='100px' width='100px'  fill="#e76155" xmlns="http://www.w3.org/2000/svg" xmlns:xlink="http://www.w3.org/1999/xlink" version="1.1" x="0px" y="0px" viewBox="0 0 34 34" enable-background="new 0 0 34 34" xml:space="preserve"><g><path d="M0.98556,10.29004V31c0,1.10004,0.90002,2,2,2h20c1.10004,0,2-0.89996,2-2V20.06l-7.91998,7.91003   c-0.37,0.38-0.88,0.58997-1.41004,0.58997H13.5256c-1.10004,0-2-0.89996-2-2v-2.12c0-0.52997,0.20996-1.03998,0.58997-1.41998   l12.87-12.87V3c0-1.09998-0.90997-2-2-2L10.2156,1.02002c-0.14001,0-0.25,0.10999-0.25,0.25v6.77002c0,1.09998-0.89001,2-2,2   H1.23556C1.09555,10.04004,0.98556,10.15002,0.98556,10.29004z"></path><path d="M26.85708,11.10846L13.5289,24.43665V26.56h2.12659l13.33148-13.32153c0.09772-0.0976,0.09772-0.25592,0.00006-0.35358   l-1.77637-1.77643C27.113,11.01086,26.95474,11.01086,26.85708,11.10846z"></path><path d="M32.57388,7.51172c-0.58997-0.58002-1.52997-0.58002-2.12,0l-1.8241,1.83319   c-0.09723,0.09772-0.09705,0.25562,0.00043,0.35309l1.76685,1.76697c0.09766,0.0976,0.25592,0.0976,0.35358,0l1.82324-1.82324   C33.18701,9.02859,33.135,8.05401,32.57388,7.51172z"></path><path d="M1.57382,8.04004h6.14294c0.13806,0,0.25-0.11188,0.25-0.25V1.64545c0-0.2243-0.26831-0.33942-0.42474-0.17865   C6.29293,2.75092,2.64706,6.3728,1.39486,7.61542C1.23648,7.77264,1.35061,8.04004,1.57382,8.04004z"></path></g></svg>